<mxfile host="app.diagrams.net" agent="Mozilla/5.0 (Windows NT 10.0; Win64; x64) AppleWebKit/537.36 (KHTML, like Gecko) Chrome/129.0.0.0 Safari/537.36" version="24.8.3">
  <diagram name="Trang-1" id="jHlyseDEyl_-eWspXWsu">
    <mxGraphModel grid="1" page="1" gridSize="10" guides="1" tooltips="1" connect="1" arrows="1" fold="1" pageScale="1" pageWidth="827" pageHeight="1169" math="0" shadow="0">
      <root>
        <mxCell id="0" />
        <mxCell id="1" parent="0" />
        <mxCell id="HxoV1ZfJNtPTrQKnj8gP-217" value="" style="rounded=0;whiteSpace=wrap;html=1;strokeWidth=3;fillColor=none;" vertex="1" parent="1">
          <mxGeometry x="1350" y="1450" width="1040" height="2970" as="geometry" />
        </mxCell>
        <mxCell id="HxoV1ZfJNtPTrQKnj8gP-76" value="" style="rounded=0;whiteSpace=wrap;html=1;fontColor=default;strokeWidth=3;fillColor=none;" vertex="1" parent="1">
          <mxGeometry x="40" y="-40" width="840" height="1360" as="geometry" />
        </mxCell>
        <mxCell id="HxoV1ZfJNtPTrQKnj8gP-3" style="rounded=0;orthogonalLoop=1;jettySize=auto;html=1;exitX=1;exitY=1;exitDx=0;exitDy=0;exitPerimeter=0;entryX=0;entryY=0.5;entryDx=0;entryDy=0;" edge="1" parent="1" source="SVNB1kdBU9AyPxKwuIYr-2" target="SVNB1kdBU9AyPxKwuIYr-9">
          <mxGeometry relative="1" as="geometry" />
        </mxCell>
        <mxCell id="HxoV1ZfJNtPTrQKnj8gP-4" style="edgeStyle=orthogonalEdgeStyle;rounded=0;orthogonalLoop=1;jettySize=auto;html=1;exitX=1;exitY=0.3333333333333333;exitDx=0;exitDy=0;exitPerimeter=0;entryX=0;entryY=0.5;entryDx=0;entryDy=0;" edge="1" parent="1" source="SVNB1kdBU9AyPxKwuIYr-2" target="SVNB1kdBU9AyPxKwuIYr-10">
          <mxGeometry relative="1" as="geometry" />
        </mxCell>
        <mxCell id="HxoV1ZfJNtPTrQKnj8gP-5" style="edgeStyle=none;rounded=0;orthogonalLoop=1;jettySize=auto;html=1;exitX=0.75;exitY=0.1;exitDx=0;exitDy=0;exitPerimeter=0;entryX=0;entryY=1;entryDx=0;entryDy=0;" edge="1" parent="1" source="SVNB1kdBU9AyPxKwuIYr-2" target="SVNB1kdBU9AyPxKwuIYr-3">
          <mxGeometry relative="1" as="geometry" />
        </mxCell>
        <mxCell id="SVNB1kdBU9AyPxKwuIYr-2" value="visitor" style="shape=umlActor;verticalLabelPosition=bottom;verticalAlign=top;html=1;outlineConnect=0;" vertex="1" parent="1">
          <mxGeometry x="79" y="260" width="30" height="60" as="geometry" />
        </mxCell>
        <mxCell id="HxoV1ZfJNtPTrQKnj8gP-6" style="edgeStyle=none;rounded=0;orthogonalLoop=1;jettySize=auto;html=1;exitX=1;exitY=0;exitDx=0;exitDy=0;entryX=0;entryY=1;entryDx=0;entryDy=0;" edge="1" parent="1" source="SVNB1kdBU9AyPxKwuIYr-3" target="SVNB1kdBU9AyPxKwuIYr-5">
          <mxGeometry relative="1" as="geometry" />
        </mxCell>
        <mxCell id="SVNB1kdBU9AyPxKwuIYr-3" value="Đăng ký" style="ellipse;whiteSpace=wrap;html=1;" vertex="1" parent="1">
          <mxGeometry x="199" y="150" width="90" height="60" as="geometry" />
        </mxCell>
        <mxCell id="HxoV1ZfJNtPTrQKnj8gP-7" style="edgeStyle=none;rounded=0;orthogonalLoop=1;jettySize=auto;html=1;exitX=1;exitY=0.5;exitDx=0;exitDy=0;entryX=0;entryY=0.5;entryDx=0;entryDy=0;" edge="1" parent="1" source="SVNB1kdBU9AyPxKwuIYr-5" target="SVNB1kdBU9AyPxKwuIYr-7">
          <mxGeometry relative="1" as="geometry" />
        </mxCell>
        <mxCell id="SVNB1kdBU9AyPxKwuIYr-5" value="Điền thông tin đăng ký" style="ellipse;whiteSpace=wrap;html=1;" vertex="1" parent="1">
          <mxGeometry x="339" y="70" width="90" height="60" as="geometry" />
        </mxCell>
        <mxCell id="HxoV1ZfJNtPTrQKnj8gP-10" style="edgeStyle=none;rounded=0;orthogonalLoop=1;jettySize=auto;html=1;exitX=0;exitY=0.5;exitDx=0;exitDy=0;entryX=1;entryY=0.5;entryDx=0;entryDy=0;" edge="1" parent="1" source="SVNB1kdBU9AyPxKwuIYr-6" target="SVNB1kdBU9AyPxKwuIYr-11">
          <mxGeometry relative="1" as="geometry" />
        </mxCell>
        <mxCell id="SVNB1kdBU9AyPxKwuIYr-6" value="Phê duyệt" style="ellipse;whiteSpace=wrap;html=1;" vertex="1" parent="1">
          <mxGeometry x="520" y="190" width="90" height="60" as="geometry" />
        </mxCell>
        <mxCell id="SVNB1kdBU9AyPxKwuIYr-7" value="Gửi yêu cầu đăng ký" style="ellipse;whiteSpace=wrap;html=1;" vertex="1" parent="1">
          <mxGeometry x="509" y="70" width="90" height="60" as="geometry" />
        </mxCell>
        <mxCell id="SVNB1kdBU9AyPxKwuIYr-8" value="Xác thực&lt;div&gt;thông tin&lt;/div&gt;" style="ellipse;whiteSpace=wrap;html=1;" vertex="1" parent="1">
          <mxGeometry x="440" y="360" width="90" height="60" as="geometry" />
        </mxCell>
        <mxCell id="HxoV1ZfJNtPTrQKnj8gP-12" style="edgeStyle=none;rounded=0;orthogonalLoop=1;jettySize=auto;html=1;exitX=1;exitY=0.5;exitDx=0;exitDy=0;entryX=0;entryY=0.5;entryDx=0;entryDy=0;" edge="1" parent="1" source="SVNB1kdBU9AyPxKwuIYr-9" target="SVNB1kdBU9AyPxKwuIYr-8">
          <mxGeometry relative="1" as="geometry" />
        </mxCell>
        <mxCell id="SVNB1kdBU9AyPxKwuIYr-9" value="Quên mật khẩu" style="ellipse;whiteSpace=wrap;html=1;" vertex="1" parent="1">
          <mxGeometry x="230" y="350" width="90" height="60" as="geometry" />
        </mxCell>
        <mxCell id="SVNB1kdBU9AyPxKwuIYr-10" value="Đăng nhập" style="ellipse;whiteSpace=wrap;html=1;" vertex="1" parent="1">
          <mxGeometry x="199" y="250" width="90" height="60" as="geometry" />
        </mxCell>
        <mxCell id="HxoV1ZfJNtPTrQKnj8gP-11" style="edgeStyle=none;rounded=0;orthogonalLoop=1;jettySize=auto;html=1;exitX=0;exitY=0.5;exitDx=0;exitDy=0;entryX=1;entryY=0.5;entryDx=0;entryDy=0;" edge="1" parent="1" source="SVNB1kdBU9AyPxKwuIYr-11" target="SVNB1kdBU9AyPxKwuIYr-10">
          <mxGeometry relative="1" as="geometry" />
        </mxCell>
        <mxCell id="SVNB1kdBU9AyPxKwuIYr-11" value="Thông báo" style="ellipse;whiteSpace=wrap;html=1;" vertex="1" parent="1">
          <mxGeometry x="380" y="230" width="90" height="60" as="geometry" />
        </mxCell>
        <mxCell id="HxoV1ZfJNtPTrQKnj8gP-9" style="edgeStyle=none;rounded=0;orthogonalLoop=1;jettySize=auto;html=1;exitX=0;exitY=1;exitDx=0;exitDy=0;exitPerimeter=0;entryX=1;entryY=0;entryDx=0;entryDy=0;" edge="1" parent="1" source="HxoV1ZfJNtPTrQKnj8gP-1" target="SVNB1kdBU9AyPxKwuIYr-6">
          <mxGeometry relative="1" as="geometry" />
        </mxCell>
        <mxCell id="HxoV1ZfJNtPTrQKnj8gP-1" value="system" style="shape=umlActor;verticalLabelPosition=bottom;verticalAlign=top;html=1;outlineConnect=0;" vertex="1" parent="1">
          <mxGeometry x="659" y="150" width="30" height="60" as="geometry" />
        </mxCell>
        <mxCell id="HxoV1ZfJNtPTrQKnj8gP-8" style="edgeStyle=none;rounded=0;orthogonalLoop=1;jettySize=auto;html=1;exitX=1;exitY=1;exitDx=0;exitDy=0;entryX=0;entryY=0.3333333333333333;entryDx=0;entryDy=0;entryPerimeter=0;" edge="1" parent="1" source="SVNB1kdBU9AyPxKwuIYr-7" target="HxoV1ZfJNtPTrQKnj8gP-1">
          <mxGeometry relative="1" as="geometry" />
        </mxCell>
        <mxCell id="HxoV1ZfJNtPTrQKnj8gP-15" style="edgeStyle=orthogonalEdgeStyle;rounded=0;orthogonalLoop=1;jettySize=auto;html=1;exitX=1;exitY=0.3333333333333333;exitDx=0;exitDy=0;exitPerimeter=0;entryX=0;entryY=0.5;entryDx=0;entryDy=0;" edge="1" parent="1" source="HxoV1ZfJNtPTrQKnj8gP-17" target="HxoV1ZfJNtPTrQKnj8gP-29">
          <mxGeometry relative="1" as="geometry" />
        </mxCell>
        <mxCell id="HxoV1ZfJNtPTrQKnj8gP-17" value="visitor" style="shape=umlActor;verticalLabelPosition=bottom;verticalAlign=top;html=1;outlineConnect=0;" vertex="1" parent="1">
          <mxGeometry x="79" y="580" width="30" height="60" as="geometry" />
        </mxCell>
        <mxCell id="HxoV1ZfJNtPTrQKnj8gP-45" style="edgeStyle=none;rounded=0;orthogonalLoop=1;jettySize=auto;html=1;exitX=0.5;exitY=1;exitDx=0;exitDy=0;entryX=0.5;entryY=0;entryDx=0;entryDy=0;" edge="1" parent="1" source="HxoV1ZfJNtPTrQKnj8gP-23" target="HxoV1ZfJNtPTrQKnj8gP-31">
          <mxGeometry relative="1" as="geometry" />
        </mxCell>
        <mxCell id="HxoV1ZfJNtPTrQKnj8gP-23" value="Phê duyệt" style="ellipse;whiteSpace=wrap;html=1;" vertex="1" parent="1">
          <mxGeometry x="629" y="550" width="90" height="60" as="geometry" />
        </mxCell>
        <mxCell id="HxoV1ZfJNtPTrQKnj8gP-42" style="edgeStyle=none;rounded=0;orthogonalLoop=1;jettySize=auto;html=1;exitX=1;exitY=0;exitDx=0;exitDy=0;entryX=0;entryY=0.5;entryDx=0;entryDy=0;" edge="1" parent="1" source="HxoV1ZfJNtPTrQKnj8gP-29" target="HxoV1ZfJNtPTrQKnj8gP-38">
          <mxGeometry relative="1" as="geometry" />
        </mxCell>
        <mxCell id="HxoV1ZfJNtPTrQKnj8gP-29" value="Giao tiếp trực tuyến" style="ellipse;whiteSpace=wrap;html=1;" vertex="1" parent="1">
          <mxGeometry x="199" y="570" width="90" height="60" as="geometry" />
        </mxCell>
        <mxCell id="HxoV1ZfJNtPTrQKnj8gP-31" value="Thông báo" style="ellipse;whiteSpace=wrap;html=1;" vertex="1" parent="1">
          <mxGeometry x="620" y="690" width="90" height="60" as="geometry" />
        </mxCell>
        <mxCell id="HxoV1ZfJNtPTrQKnj8gP-44" style="edgeStyle=none;rounded=0;orthogonalLoop=1;jettySize=auto;html=1;exitX=1;exitY=0.3333333333333333;exitDx=0;exitDy=0;exitPerimeter=0;" edge="1" parent="1" source="HxoV1ZfJNtPTrQKnj8gP-33" target="HxoV1ZfJNtPTrQKnj8gP-23">
          <mxGeometry relative="1" as="geometry" />
        </mxCell>
        <mxCell id="HxoV1ZfJNtPTrQKnj8gP-33" value="system" style="shape=umlActor;verticalLabelPosition=bottom;verticalAlign=top;html=1;outlineConnect=0;" vertex="1" parent="1">
          <mxGeometry x="520" y="530" width="30" height="60" as="geometry" />
        </mxCell>
        <mxCell id="HxoV1ZfJNtPTrQKnj8gP-49" style="edgeStyle=none;rounded=0;orthogonalLoop=1;jettySize=auto;html=1;exitX=0;exitY=0.5;exitDx=0;exitDy=0;entryX=1;entryY=1;entryDx=0;entryDy=0;" edge="1" parent="1" source="HxoV1ZfJNtPTrQKnj8gP-37" target="HxoV1ZfJNtPTrQKnj8gP-48">
          <mxGeometry relative="1" as="geometry" />
        </mxCell>
        <mxCell id="HxoV1ZfJNtPTrQKnj8gP-37" value="Phản hồi tin nhắn" style="ellipse;whiteSpace=wrap;html=1;" vertex="1" parent="1">
          <mxGeometry x="329" y="720" width="90" height="60" as="geometry" />
        </mxCell>
        <mxCell id="HxoV1ZfJNtPTrQKnj8gP-38" value="Gửi tin nhắn" style="ellipse;whiteSpace=wrap;html=1;" vertex="1" parent="1">
          <mxGeometry x="360" y="520" width="90" height="60" as="geometry" />
        </mxCell>
        <mxCell id="HxoV1ZfJNtPTrQKnj8gP-47" style="edgeStyle=none;rounded=0;orthogonalLoop=1;jettySize=auto;html=1;exitX=0;exitY=0.3333333333333333;exitDx=0;exitDy=0;exitPerimeter=0;entryX=1;entryY=0.5;entryDx=0;entryDy=0;" edge="1" parent="1" source="HxoV1ZfJNtPTrQKnj8gP-41" target="HxoV1ZfJNtPTrQKnj8gP-37">
          <mxGeometry relative="1" as="geometry" />
        </mxCell>
        <mxCell id="HxoV1ZfJNtPTrQKnj8gP-41" value="employee" style="shape=umlActor;verticalLabelPosition=bottom;verticalAlign=top;html=1;outlineConnect=0;" vertex="1" parent="1">
          <mxGeometry x="479" y="730" width="30" height="60" as="geometry" />
        </mxCell>
        <mxCell id="HxoV1ZfJNtPTrQKnj8gP-43" style="edgeStyle=none;rounded=0;orthogonalLoop=1;jettySize=auto;html=1;exitX=1;exitY=0.5;exitDx=0;exitDy=0;entryX=0;entryY=0.3333333333333333;entryDx=0;entryDy=0;entryPerimeter=0;" edge="1" parent="1" source="HxoV1ZfJNtPTrQKnj8gP-38" target="HxoV1ZfJNtPTrQKnj8gP-33">
          <mxGeometry relative="1" as="geometry" />
        </mxCell>
        <mxCell id="HxoV1ZfJNtPTrQKnj8gP-46" style="edgeStyle=none;rounded=0;orthogonalLoop=1;jettySize=auto;html=1;exitX=0;exitY=0.5;exitDx=0;exitDy=0;entryX=1;entryY=0.3333333333333333;entryDx=0;entryDy=0;entryPerimeter=0;" edge="1" parent="1" source="HxoV1ZfJNtPTrQKnj8gP-31" target="HxoV1ZfJNtPTrQKnj8gP-41">
          <mxGeometry relative="1" as="geometry" />
        </mxCell>
        <mxCell id="HxoV1ZfJNtPTrQKnj8gP-51" style="edgeStyle=none;rounded=0;orthogonalLoop=1;jettySize=auto;html=1;exitX=0.5;exitY=0;exitDx=0;exitDy=0;entryX=0.5;entryY=1;entryDx=0;entryDy=0;" edge="1" parent="1" source="HxoV1ZfJNtPTrQKnj8gP-48" target="HxoV1ZfJNtPTrQKnj8gP-29">
          <mxGeometry relative="1" as="geometry" />
        </mxCell>
        <mxCell id="HxoV1ZfJNtPTrQKnj8gP-48" value="Thông báo" style="ellipse;whiteSpace=wrap;html=1;" vertex="1" parent="1">
          <mxGeometry x="199" y="670" width="90" height="60" as="geometry" />
        </mxCell>
        <mxCell id="HxoV1ZfJNtPTrQKnj8gP-52" style="rounded=0;orthogonalLoop=1;jettySize=auto;html=1;exitX=1;exitY=0.3333333333333333;exitDx=0;exitDy=0;exitPerimeter=0;entryX=0;entryY=0.5;entryDx=0;entryDy=0;" edge="1" parent="1" source="HxoV1ZfJNtPTrQKnj8gP-53" target="HxoV1ZfJNtPTrQKnj8gP-57">
          <mxGeometry relative="1" as="geometry" />
        </mxCell>
        <mxCell id="HxoV1ZfJNtPTrQKnj8gP-53" value="visitor" style="shape=umlActor;verticalLabelPosition=bottom;verticalAlign=top;html=1;outlineConnect=0;" vertex="1" parent="1">
          <mxGeometry x="79" y="980" width="30" height="60" as="geometry" />
        </mxCell>
        <mxCell id="HxoV1ZfJNtPTrQKnj8gP-206" style="edgeStyle=none;rounded=0;orthogonalLoop=1;jettySize=auto;html=1;exitX=0.5;exitY=1;exitDx=0;exitDy=0;" edge="1" parent="1" source="HxoV1ZfJNtPTrQKnj8gP-55" target="HxoV1ZfJNtPTrQKnj8gP-58">
          <mxGeometry relative="1" as="geometry" />
        </mxCell>
        <mxCell id="HxoV1ZfJNtPTrQKnj8gP-55" value="Kiểm tra&lt;div&gt;thông tin&lt;/div&gt;" style="ellipse;whiteSpace=wrap;html=1;" vertex="1" parent="1">
          <mxGeometry x="737" y="960" width="90" height="60" as="geometry" />
        </mxCell>
        <mxCell id="HxoV1ZfJNtPTrQKnj8gP-56" style="edgeStyle=none;rounded=0;orthogonalLoop=1;jettySize=auto;html=1;exitX=1;exitY=0;exitDx=0;exitDy=0;entryX=0;entryY=0.5;entryDx=0;entryDy=0;" edge="1" parent="1" source="HxoV1ZfJNtPTrQKnj8gP-57" target="HxoV1ZfJNtPTrQKnj8gP-63">
          <mxGeometry relative="1" as="geometry" />
        </mxCell>
        <mxCell id="HxoV1ZfJNtPTrQKnj8gP-57" value="Website tuyển dụng" style="ellipse;whiteSpace=wrap;html=1;" vertex="1" parent="1">
          <mxGeometry x="210" y="900" width="90" height="60" as="geometry" />
        </mxCell>
        <mxCell id="HxoV1ZfJNtPTrQKnj8gP-58" value="Xác nhận&lt;div&gt;ứng viên&lt;/div&gt;" style="ellipse;whiteSpace=wrap;html=1;" vertex="1" parent="1">
          <mxGeometry x="740" y="1060" width="90" height="60" as="geometry" />
        </mxCell>
        <mxCell id="HxoV1ZfJNtPTrQKnj8gP-210" style="edgeStyle=none;rounded=0;orthogonalLoop=1;jettySize=auto;html=1;exitX=0;exitY=0;exitDx=0;exitDy=0;" edge="1" parent="1" source="HxoV1ZfJNtPTrQKnj8gP-62" target="HxoV1ZfJNtPTrQKnj8gP-69">
          <mxGeometry relative="1" as="geometry" />
        </mxCell>
        <mxCell id="HxoV1ZfJNtPTrQKnj8gP-62" value="Kiểm tra thông tin" style="ellipse;whiteSpace=wrap;html=1;" vertex="1" parent="1">
          <mxGeometry x="230" y="1150" width="90" height="60" as="geometry" />
        </mxCell>
        <mxCell id="HxoV1ZfJNtPTrQKnj8gP-71" style="edgeStyle=none;rounded=0;orthogonalLoop=1;jettySize=auto;html=1;exitX=1;exitY=0.5;exitDx=0;exitDy=0;entryX=0;entryY=0.5;entryDx=0;entryDy=0;" edge="1" parent="1" source="HxoV1ZfJNtPTrQKnj8gP-63" target="HxoV1ZfJNtPTrQKnj8gP-70">
          <mxGeometry relative="1" as="geometry" />
        </mxCell>
        <mxCell id="HxoV1ZfJNtPTrQKnj8gP-63" value="Điền thông tin cá nhân" style="ellipse;whiteSpace=wrap;html=1;" vertex="1" parent="1">
          <mxGeometry x="360" y="880" width="90" height="60" as="geometry" />
        </mxCell>
        <mxCell id="HxoV1ZfJNtPTrQKnj8gP-64" style="edgeStyle=none;rounded=0;orthogonalLoop=1;jettySize=auto;html=1;exitX=0;exitY=0.3333333333333333;exitDx=0;exitDy=0;exitPerimeter=0;entryX=1;entryY=0.5;entryDx=0;entryDy=0;" edge="1" parent="1" source="HxoV1ZfJNtPTrQKnj8gP-65" target="HxoV1ZfJNtPTrQKnj8gP-62">
          <mxGeometry relative="1" as="geometry" />
        </mxCell>
        <mxCell id="HxoV1ZfJNtPTrQKnj8gP-65" value="HR" style="shape=umlActor;verticalLabelPosition=bottom;verticalAlign=top;html=1;outlineConnect=0;" vertex="1" parent="1">
          <mxGeometry x="380" y="1190" width="30" height="60" as="geometry" />
        </mxCell>
        <mxCell id="HxoV1ZfJNtPTrQKnj8gP-69" value="Thông báo ngày phỏng vấn" style="ellipse;whiteSpace=wrap;html=1;" vertex="1" parent="1">
          <mxGeometry x="120" y="1090" width="100" height="60" as="geometry" />
        </mxCell>
        <mxCell id="HxoV1ZfJNtPTrQKnj8gP-70" value="Gửi yêu cầu tuyển dụng" style="ellipse;whiteSpace=wrap;html=1;" vertex="1" parent="1">
          <mxGeometry x="490" y="880" width="90" height="60" as="geometry" />
        </mxCell>
        <mxCell id="HxoV1ZfJNtPTrQKnj8gP-74" style="edgeStyle=none;rounded=0;orthogonalLoop=1;jettySize=auto;html=1;exitX=1;exitY=1;exitDx=0;exitDy=0;exitPerimeter=0;" edge="1" parent="1" source="HxoV1ZfJNtPTrQKnj8gP-72" target="HxoV1ZfJNtPTrQKnj8gP-55">
          <mxGeometry relative="1" as="geometry" />
        </mxCell>
        <mxCell id="HxoV1ZfJNtPTrQKnj8gP-72" value="employee" style="shape=umlActor;verticalLabelPosition=bottom;verticalAlign=top;html=1;outlineConnect=0;" vertex="1" parent="1">
          <mxGeometry x="659" y="880" width="30" height="60" as="geometry" />
        </mxCell>
        <mxCell id="HxoV1ZfJNtPTrQKnj8gP-73" style="edgeStyle=none;rounded=0;orthogonalLoop=1;jettySize=auto;html=1;exitX=1;exitY=0.5;exitDx=0;exitDy=0;entryX=0;entryY=0.3333333333333333;entryDx=0;entryDy=0;entryPerimeter=0;" edge="1" parent="1" source="HxoV1ZfJNtPTrQKnj8gP-70" target="HxoV1ZfJNtPTrQKnj8gP-72">
          <mxGeometry relative="1" as="geometry" />
        </mxCell>
        <mxCell id="HxoV1ZfJNtPTrQKnj8gP-78" style="rounded=0;orthogonalLoop=1;jettySize=auto;html=1;exitX=1;exitY=1;exitDx=0;exitDy=0;exitPerimeter=0;entryX=0;entryY=0.5;entryDx=0;entryDy=0;" edge="1" parent="1" source="HxoV1ZfJNtPTrQKnj8gP-81" target="HxoV1ZfJNtPTrQKnj8gP-92">
          <mxGeometry relative="1" as="geometry" />
        </mxCell>
        <mxCell id="HxoV1ZfJNtPTrQKnj8gP-79" style="rounded=0;orthogonalLoop=1;jettySize=auto;html=1;exitX=1;exitY=0.3333333333333333;exitDx=0;exitDy=0;exitPerimeter=0;entryX=0;entryY=0.5;entryDx=0;entryDy=0;" edge="1" parent="1" source="HxoV1ZfJNtPTrQKnj8gP-81" target="HxoV1ZfJNtPTrQKnj8gP-93">
          <mxGeometry relative="1" as="geometry" />
        </mxCell>
        <mxCell id="HxoV1ZfJNtPTrQKnj8gP-81" value="employee" style="shape=umlActor;verticalLabelPosition=bottom;verticalAlign=top;html=1;outlineConnect=0;" vertex="1" parent="1">
          <mxGeometry x="79" y="1580" width="30" height="60" as="geometry" />
        </mxCell>
        <mxCell id="HxoV1ZfJNtPTrQKnj8gP-100" style="edgeStyle=none;rounded=0;orthogonalLoop=1;jettySize=auto;html=1;exitX=0;exitY=0;exitDx=0;exitDy=0;" edge="1" parent="1" source="HxoV1ZfJNtPTrQKnj8gP-87" target="HxoV1ZfJNtPTrQKnj8gP-95">
          <mxGeometry relative="1" as="geometry" />
        </mxCell>
        <mxCell id="HxoV1ZfJNtPTrQKnj8gP-87" value="Phê duyệt" style="ellipse;whiteSpace=wrap;html=1;" vertex="1" parent="1">
          <mxGeometry x="550" y="1490" width="90" height="60" as="geometry" />
        </mxCell>
        <mxCell id="HxoV1ZfJNtPTrQKnj8gP-90" value="Xác thực&lt;div&gt;thông tin&lt;/div&gt;" style="ellipse;whiteSpace=wrap;html=1;" vertex="1" parent="1">
          <mxGeometry x="400" y="1630" width="90" height="60" as="geometry" />
        </mxCell>
        <mxCell id="HxoV1ZfJNtPTrQKnj8gP-91" style="edgeStyle=none;rounded=0;orthogonalLoop=1;jettySize=auto;html=1;exitX=1;exitY=0.5;exitDx=0;exitDy=0;entryX=0;entryY=0.5;entryDx=0;entryDy=0;" edge="1" parent="1" source="HxoV1ZfJNtPTrQKnj8gP-92" target="HxoV1ZfJNtPTrQKnj8gP-90">
          <mxGeometry relative="1" as="geometry" />
        </mxCell>
        <mxCell id="HxoV1ZfJNtPTrQKnj8gP-92" value="Quên mật khẩu" style="ellipse;whiteSpace=wrap;html=1;" vertex="1" parent="1">
          <mxGeometry x="199" y="1640" width="90" height="60" as="geometry" />
        </mxCell>
        <mxCell id="HxoV1ZfJNtPTrQKnj8gP-93" value="Đăng nhập" style="ellipse;whiteSpace=wrap;html=1;" vertex="1" parent="1">
          <mxGeometry x="210" y="1510" width="90" height="60" as="geometry" />
        </mxCell>
        <mxCell id="HxoV1ZfJNtPTrQKnj8gP-94" style="edgeStyle=none;rounded=0;orthogonalLoop=1;jettySize=auto;html=1;exitX=0;exitY=0.5;exitDx=0;exitDy=0;entryX=1;entryY=0.5;entryDx=0;entryDy=0;" edge="1" parent="1" source="HxoV1ZfJNtPTrQKnj8gP-95" target="HxoV1ZfJNtPTrQKnj8gP-93">
          <mxGeometry relative="1" as="geometry" />
        </mxCell>
        <mxCell id="HxoV1ZfJNtPTrQKnj8gP-95" value="Thông báo" style="ellipse;whiteSpace=wrap;html=1;" vertex="1" parent="1">
          <mxGeometry x="419" y="1450" width="90" height="60" as="geometry" />
        </mxCell>
        <mxCell id="HxoV1ZfJNtPTrQKnj8gP-99" style="edgeStyle=none;rounded=0;orthogonalLoop=1;jettySize=auto;html=1;exitX=0;exitY=0.3333333333333333;exitDx=0;exitDy=0;exitPerimeter=0;entryX=1;entryY=0.5;entryDx=0;entryDy=0;" edge="1" parent="1" source="HxoV1ZfJNtPTrQKnj8gP-97" target="HxoV1ZfJNtPTrQKnj8gP-87">
          <mxGeometry relative="1" as="geometry" />
        </mxCell>
        <mxCell id="HxoV1ZfJNtPTrQKnj8gP-97" value="system" style="shape=umlActor;verticalLabelPosition=bottom;verticalAlign=top;html=1;outlineConnect=0;" vertex="1" parent="1">
          <mxGeometry x="689" y="1580" width="30" height="60" as="geometry" />
        </mxCell>
        <mxCell id="HxoV1ZfJNtPTrQKnj8gP-101" style="edgeStyle=none;rounded=0;orthogonalLoop=1;jettySize=auto;html=1;exitX=1;exitY=0.5;exitDx=0;exitDy=0;entryX=0;entryY=1;entryDx=0;entryDy=0;entryPerimeter=0;" edge="1" parent="1" source="HxoV1ZfJNtPTrQKnj8gP-90" target="HxoV1ZfJNtPTrQKnj8gP-97">
          <mxGeometry relative="1" as="geometry" />
        </mxCell>
        <mxCell id="HxoV1ZfJNtPTrQKnj8gP-103" style="edgeStyle=none;rounded=0;orthogonalLoop=1;jettySize=auto;html=1;exitX=1;exitY=0.5;exitDx=0;exitDy=0;entryX=0;entryY=1;entryDx=0;entryDy=0;entryPerimeter=0;" edge="1" parent="1" source="SVNB1kdBU9AyPxKwuIYr-8" target="HxoV1ZfJNtPTrQKnj8gP-1">
          <mxGeometry relative="1" as="geometry" />
        </mxCell>
        <mxCell id="HxoV1ZfJNtPTrQKnj8gP-248" style="edgeStyle=none;rounded=0;orthogonalLoop=1;jettySize=auto;html=1;exitX=1;exitY=0.3333333333333333;exitDx=0;exitDy=0;exitPerimeter=0;entryX=0;entryY=0.5;entryDx=0;entryDy=0;" edge="1" parent="1" source="HxoV1ZfJNtPTrQKnj8gP-104" target="HxoV1ZfJNtPTrQKnj8gP-127">
          <mxGeometry relative="1" as="geometry" />
        </mxCell>
        <mxCell id="HxoV1ZfJNtPTrQKnj8gP-104" value="employee" style="shape=umlActor;verticalLabelPosition=bottom;verticalAlign=top;html=1;outlineConnect=0;" vertex="1" parent="1">
          <mxGeometry x="79" y="1820" width="30" height="60" as="geometry" />
        </mxCell>
        <mxCell id="HxoV1ZfJNtPTrQKnj8gP-253" style="edgeStyle=none;rounded=0;orthogonalLoop=1;jettySize=auto;html=1;exitX=0.5;exitY=1;exitDx=0;exitDy=0;entryX=1;entryY=0;entryDx=0;entryDy=0;" edge="1" parent="1" source="HxoV1ZfJNtPTrQKnj8gP-126" target="HxoV1ZfJNtPTrQKnj8gP-153">
          <mxGeometry relative="1" as="geometry" />
        </mxCell>
        <mxCell id="HxoV1ZfJNtPTrQKnj8gP-126" value="Cập nhật&lt;div&gt;thông tin&lt;/div&gt;" style="ellipse;whiteSpace=wrap;html=1;" vertex="1" parent="1">
          <mxGeometry x="827" y="1770" width="90" height="60" as="geometry" />
        </mxCell>
        <mxCell id="HxoV1ZfJNtPTrQKnj8gP-136" style="edgeStyle=none;rounded=0;orthogonalLoop=1;jettySize=auto;html=1;exitX=1;exitY=0.5;exitDx=0;exitDy=0;entryX=0;entryY=0.5;entryDx=0;entryDy=0;" edge="1" parent="1" source="HxoV1ZfJNtPTrQKnj8gP-127" target="HxoV1ZfJNtPTrQKnj8gP-130">
          <mxGeometry relative="1" as="geometry" />
        </mxCell>
        <mxCell id="HxoV1ZfJNtPTrQKnj8gP-127" value="Chỉnh sửa thông tin cá nhân" style="ellipse;whiteSpace=wrap;html=1;" vertex="1" parent="1">
          <mxGeometry x="204" y="1810" width="100" height="60" as="geometry" />
        </mxCell>
        <mxCell id="HxoV1ZfJNtPTrQKnj8gP-252" style="edgeStyle=none;rounded=0;orthogonalLoop=1;jettySize=auto;html=1;exitX=1;exitY=0.5;exitDx=0;exitDy=0;entryX=0;entryY=0.5;entryDx=0;entryDy=0;" edge="1" parent="1" source="HxoV1ZfJNtPTrQKnj8gP-129" target="HxoV1ZfJNtPTrQKnj8gP-126">
          <mxGeometry relative="1" as="geometry" />
        </mxCell>
        <mxCell id="HxoV1ZfJNtPTrQKnj8gP-129" value="Xác nhận&lt;div&gt;chỉnh sửa&lt;/div&gt;" style="ellipse;whiteSpace=wrap;html=1;" vertex="1" parent="1">
          <mxGeometry x="690" y="1750" width="90" height="60" as="geometry" />
        </mxCell>
        <mxCell id="HxoV1ZfJNtPTrQKnj8gP-130" value="Gửi yêu cầu&amp;nbsp; chỉnh sửa&lt;div&gt;thông tin&lt;/div&gt;" style="ellipse;whiteSpace=wrap;html=1;" vertex="1" parent="1">
          <mxGeometry x="380" y="1860" width="100" height="60" as="geometry" />
        </mxCell>
        <mxCell id="HxoV1ZfJNtPTrQKnj8gP-151" style="edgeStyle=none;rounded=0;orthogonalLoop=1;jettySize=auto;html=1;exitX=1;exitY=0.3333333333333333;exitDx=0;exitDy=0;exitPerimeter=0;entryX=0;entryY=0.5;entryDx=0;entryDy=0;" edge="1" parent="1" source="HxoV1ZfJNtPTrQKnj8gP-134" target="HxoV1ZfJNtPTrQKnj8gP-129">
          <mxGeometry relative="1" as="geometry" />
        </mxCell>
        <mxCell id="HxoV1ZfJNtPTrQKnj8gP-134" value="system" style="shape=umlActor;verticalLabelPosition=bottom;verticalAlign=top;html=1;outlineConnect=0;" vertex="1" parent="1">
          <mxGeometry x="560" y="1820" width="30" height="60" as="geometry" />
        </mxCell>
        <mxCell id="HxoV1ZfJNtPTrQKnj8gP-143" style="edgeStyle=none;rounded=0;orthogonalLoop=1;jettySize=auto;html=1;exitX=1;exitY=0.5;exitDx=0;exitDy=0;entryX=0;entryY=0.5;entryDx=0;entryDy=0;" edge="1" parent="1" source="HxoV1ZfJNtPTrQKnj8gP-140" target="HxoV1ZfJNtPTrQKnj8gP-142">
          <mxGeometry relative="1" as="geometry" />
        </mxCell>
        <mxCell id="HxoV1ZfJNtPTrQKnj8gP-149" style="edgeStyle=none;rounded=0;orthogonalLoop=1;jettySize=auto;html=1;exitX=1;exitY=1;exitDx=0;exitDy=0;entryX=0;entryY=0.5;entryDx=0;entryDy=0;" edge="1" parent="1" source="HxoV1ZfJNtPTrQKnj8gP-140" target="HxoV1ZfJNtPTrQKnj8gP-148">
          <mxGeometry relative="1" as="geometry" />
        </mxCell>
        <mxCell id="HxoV1ZfJNtPTrQKnj8gP-140" value="Quản lý&lt;div&gt;lịch làm việc&lt;/div&gt;" style="ellipse;whiteSpace=wrap;html=1;" vertex="1" parent="1">
          <mxGeometry x="222" y="2090" width="100" height="60" as="geometry" />
        </mxCell>
        <mxCell id="HxoV1ZfJNtPTrQKnj8gP-142" value="Điểm danh" style="ellipse;whiteSpace=wrap;html=1;" vertex="1" parent="1">
          <mxGeometry x="400" y="2035" width="90" height="60" as="geometry" />
        </mxCell>
        <mxCell id="HxoV1ZfJNtPTrQKnj8gP-147" style="edgeStyle=none;rounded=0;orthogonalLoop=1;jettySize=auto;html=1;exitX=1;exitY=0.3333333333333333;exitDx=0;exitDy=0;exitPerimeter=0;entryX=0;entryY=0.5;entryDx=0;entryDy=0;" edge="1" parent="1" source="HxoV1ZfJNtPTrQKnj8gP-144" target="HxoV1ZfJNtPTrQKnj8gP-146">
          <mxGeometry relative="1" as="geometry" />
        </mxCell>
        <mxCell id="HxoV1ZfJNtPTrQKnj8gP-144" value="system" style="shape=umlActor;verticalLabelPosition=bottom;verticalAlign=top;html=1;outlineConnect=0;" vertex="1" parent="1">
          <mxGeometry x="569" y="2100" width="30" height="60" as="geometry" />
        </mxCell>
        <mxCell id="HxoV1ZfJNtPTrQKnj8gP-145" style="edgeStyle=none;rounded=0;orthogonalLoop=1;jettySize=auto;html=1;exitX=1;exitY=0.5;exitDx=0;exitDy=0;entryX=0;entryY=0.3333333333333333;entryDx=0;entryDy=0;entryPerimeter=0;" edge="1" parent="1" source="HxoV1ZfJNtPTrQKnj8gP-142" target="HxoV1ZfJNtPTrQKnj8gP-144">
          <mxGeometry relative="1" as="geometry" />
        </mxCell>
        <mxCell id="HxoV1ZfJNtPTrQKnj8gP-250" style="edgeStyle=none;rounded=0;orthogonalLoop=1;jettySize=auto;html=1;exitX=1;exitY=0.5;exitDx=0;exitDy=0;entryX=0;entryY=0.5;entryDx=0;entryDy=0;" edge="1" parent="1" source="HxoV1ZfJNtPTrQKnj8gP-146" target="HxoV1ZfJNtPTrQKnj8gP-249">
          <mxGeometry relative="1" as="geometry" />
        </mxCell>
        <mxCell id="HxoV1ZfJNtPTrQKnj8gP-146" value="Xác nhận&lt;div&gt;thông tin&lt;/div&gt;" style="ellipse;whiteSpace=wrap;html=1;" vertex="1" parent="1">
          <mxGeometry x="669" y="2090" width="90" height="60" as="geometry" />
        </mxCell>
        <mxCell id="HxoV1ZfJNtPTrQKnj8gP-148" value="Gửi yêu cầu&lt;div&gt;nghỉ phép&lt;/div&gt;" style="ellipse;whiteSpace=wrap;html=1;" vertex="1" parent="1">
          <mxGeometry x="400" y="2180" width="90" height="60" as="geometry" />
        </mxCell>
        <mxCell id="HxoV1ZfJNtPTrQKnj8gP-150" style="edgeStyle=none;rounded=0;orthogonalLoop=1;jettySize=auto;html=1;exitX=1;exitY=0.5;exitDx=0;exitDy=0;entryX=0;entryY=1;entryDx=0;entryDy=0;entryPerimeter=0;" edge="1" parent="1" source="HxoV1ZfJNtPTrQKnj8gP-148" target="HxoV1ZfJNtPTrQKnj8gP-144">
          <mxGeometry relative="1" as="geometry" />
        </mxCell>
        <mxCell id="HxoV1ZfJNtPTrQKnj8gP-153" value="Lưu trữ vào&lt;div&gt;dữ liệu hệ thống&lt;/div&gt;" style="ellipse;whiteSpace=wrap;html=1;" vertex="1" parent="1">
          <mxGeometry x="764" y="1890" width="110" height="70" as="geometry" />
        </mxCell>
        <mxCell id="HxoV1ZfJNtPTrQKnj8gP-156" style="edgeStyle=orthogonalEdgeStyle;rounded=0;orthogonalLoop=1;jettySize=auto;html=1;exitX=1;exitY=0.3333333333333333;exitDx=0;exitDy=0;exitPerimeter=0;entryX=0;entryY=0.5;entryDx=0;entryDy=0;" edge="1" parent="1" source="HxoV1ZfJNtPTrQKnj8gP-157" target="HxoV1ZfJNtPTrQKnj8gP-161">
          <mxGeometry relative="1" as="geometry" />
        </mxCell>
        <mxCell id="HxoV1ZfJNtPTrQKnj8gP-157" value="employee" style="shape=umlActor;verticalLabelPosition=bottom;verticalAlign=top;html=1;outlineConnect=0;" vertex="1" parent="1">
          <mxGeometry x="79" y="3660" width="30" height="60" as="geometry" />
        </mxCell>
        <mxCell id="HxoV1ZfJNtPTrQKnj8gP-158" style="edgeStyle=none;rounded=0;orthogonalLoop=1;jettySize=auto;html=1;exitX=0.5;exitY=1;exitDx=0;exitDy=0;entryX=0.5;entryY=0;entryDx=0;entryDy=0;" edge="1" parent="1" source="HxoV1ZfJNtPTrQKnj8gP-159" target="HxoV1ZfJNtPTrQKnj8gP-162">
          <mxGeometry relative="1" as="geometry" />
        </mxCell>
        <mxCell id="HxoV1ZfJNtPTrQKnj8gP-159" value="Phê duyệt" style="ellipse;whiteSpace=wrap;html=1;" vertex="1" parent="1">
          <mxGeometry x="629" y="3630" width="90" height="60" as="geometry" />
        </mxCell>
        <mxCell id="HxoV1ZfJNtPTrQKnj8gP-160" style="edgeStyle=none;rounded=0;orthogonalLoop=1;jettySize=auto;html=1;exitX=1;exitY=0;exitDx=0;exitDy=0;entryX=0;entryY=0.5;entryDx=0;entryDy=0;" edge="1" parent="1" source="HxoV1ZfJNtPTrQKnj8gP-161" target="HxoV1ZfJNtPTrQKnj8gP-167">
          <mxGeometry relative="1" as="geometry" />
        </mxCell>
        <mxCell id="HxoV1ZfJNtPTrQKnj8gP-161" value="Giao tiếp trực tuyến" style="ellipse;whiteSpace=wrap;html=1;" vertex="1" parent="1">
          <mxGeometry x="199" y="3650" width="90" height="60" as="geometry" />
        </mxCell>
        <mxCell id="HxoV1ZfJNtPTrQKnj8gP-162" value="Thông báo" style="ellipse;whiteSpace=wrap;html=1;" vertex="1" parent="1">
          <mxGeometry x="620" y="3770" width="90" height="60" as="geometry" />
        </mxCell>
        <mxCell id="HxoV1ZfJNtPTrQKnj8gP-163" style="edgeStyle=none;rounded=0;orthogonalLoop=1;jettySize=auto;html=1;exitX=1;exitY=0.3333333333333333;exitDx=0;exitDy=0;exitPerimeter=0;" edge="1" parent="1" source="HxoV1ZfJNtPTrQKnj8gP-164" target="HxoV1ZfJNtPTrQKnj8gP-159">
          <mxGeometry relative="1" as="geometry" />
        </mxCell>
        <mxCell id="HxoV1ZfJNtPTrQKnj8gP-164" value="system" style="shape=umlActor;verticalLabelPosition=bottom;verticalAlign=top;html=1;outlineConnect=0;" vertex="1" parent="1">
          <mxGeometry x="520" y="3610" width="30" height="60" as="geometry" />
        </mxCell>
        <mxCell id="HxoV1ZfJNtPTrQKnj8gP-165" style="edgeStyle=none;rounded=0;orthogonalLoop=1;jettySize=auto;html=1;exitX=0;exitY=0.5;exitDx=0;exitDy=0;entryX=1;entryY=1;entryDx=0;entryDy=0;" edge="1" parent="1" source="HxoV1ZfJNtPTrQKnj8gP-166" target="HxoV1ZfJNtPTrQKnj8gP-173">
          <mxGeometry relative="1" as="geometry" />
        </mxCell>
        <mxCell id="HxoV1ZfJNtPTrQKnj8gP-166" value="Phản hồi tin nhắn" style="ellipse;whiteSpace=wrap;html=1;" vertex="1" parent="1">
          <mxGeometry x="329" y="3800" width="90" height="60" as="geometry" />
        </mxCell>
        <mxCell id="HxoV1ZfJNtPTrQKnj8gP-167" value="Gửi tin nhắn" style="ellipse;whiteSpace=wrap;html=1;" vertex="1" parent="1">
          <mxGeometry x="360" y="3600" width="90" height="60" as="geometry" />
        </mxCell>
        <mxCell id="HxoV1ZfJNtPTrQKnj8gP-168" style="edgeStyle=none;rounded=0;orthogonalLoop=1;jettySize=auto;html=1;exitX=0;exitY=0.3333333333333333;exitDx=0;exitDy=0;exitPerimeter=0;entryX=1;entryY=0.5;entryDx=0;entryDy=0;" edge="1" parent="1" source="HxoV1ZfJNtPTrQKnj8gP-169" target="HxoV1ZfJNtPTrQKnj8gP-166">
          <mxGeometry relative="1" as="geometry" />
        </mxCell>
        <mxCell id="HxoV1ZfJNtPTrQKnj8gP-169" value="visitor" style="shape=umlActor;verticalLabelPosition=bottom;verticalAlign=top;html=1;outlineConnect=0;" vertex="1" parent="1">
          <mxGeometry x="479" y="3810" width="30" height="60" as="geometry" />
        </mxCell>
        <mxCell id="HxoV1ZfJNtPTrQKnj8gP-170" style="edgeStyle=none;rounded=0;orthogonalLoop=1;jettySize=auto;html=1;exitX=1;exitY=0.5;exitDx=0;exitDy=0;entryX=0;entryY=0.3333333333333333;entryDx=0;entryDy=0;entryPerimeter=0;" edge="1" parent="1" source="HxoV1ZfJNtPTrQKnj8gP-167" target="HxoV1ZfJNtPTrQKnj8gP-164">
          <mxGeometry relative="1" as="geometry" />
        </mxCell>
        <mxCell id="HxoV1ZfJNtPTrQKnj8gP-171" style="edgeStyle=none;rounded=0;orthogonalLoop=1;jettySize=auto;html=1;exitX=0;exitY=0.5;exitDx=0;exitDy=0;entryX=1;entryY=0.3333333333333333;entryDx=0;entryDy=0;entryPerimeter=0;" edge="1" parent="1" source="HxoV1ZfJNtPTrQKnj8gP-162" target="HxoV1ZfJNtPTrQKnj8gP-169">
          <mxGeometry relative="1" as="geometry" />
        </mxCell>
        <mxCell id="HxoV1ZfJNtPTrQKnj8gP-172" style="edgeStyle=none;rounded=0;orthogonalLoop=1;jettySize=auto;html=1;exitX=0.5;exitY=0;exitDx=0;exitDy=0;entryX=0.5;entryY=1;entryDx=0;entryDy=0;" edge="1" parent="1" source="HxoV1ZfJNtPTrQKnj8gP-173" target="HxoV1ZfJNtPTrQKnj8gP-161">
          <mxGeometry relative="1" as="geometry" />
        </mxCell>
        <mxCell id="HxoV1ZfJNtPTrQKnj8gP-173" value="Thông báo" style="ellipse;whiteSpace=wrap;html=1;" vertex="1" parent="1">
          <mxGeometry x="199" y="3750" width="90" height="60" as="geometry" />
        </mxCell>
        <mxCell id="HxoV1ZfJNtPTrQKnj8gP-174" style="rounded=0;orthogonalLoop=1;jettySize=auto;html=1;exitX=1;exitY=0.3333333333333333;exitDx=0;exitDy=0;exitPerimeter=0;entryX=0;entryY=0.5;entryDx=0;entryDy=0;" edge="1" parent="1" source="HxoV1ZfJNtPTrQKnj8gP-175" target="HxoV1ZfJNtPTrQKnj8gP-179">
          <mxGeometry relative="1" as="geometry" />
        </mxCell>
        <mxCell id="HxoV1ZfJNtPTrQKnj8gP-175" value="employee" style="shape=umlActor;verticalLabelPosition=bottom;verticalAlign=top;html=1;outlineConnect=0;" vertex="1" parent="1">
          <mxGeometry x="79" y="4060" width="30" height="60" as="geometry" />
        </mxCell>
        <mxCell id="HxoV1ZfJNtPTrQKnj8gP-176" style="edgeStyle=none;rounded=0;orthogonalLoop=1;jettySize=auto;html=1;exitX=0.5;exitY=1;exitDx=0;exitDy=0;entryX=1;entryY=0;entryDx=0;entryDy=0;" edge="1" parent="1" source="HxoV1ZfJNtPTrQKnj8gP-177" target="HxoV1ZfJNtPTrQKnj8gP-180">
          <mxGeometry relative="1" as="geometry" />
        </mxCell>
        <mxCell id="HxoV1ZfJNtPTrQKnj8gP-177" value="Xác nhận&lt;div&gt;thông tin&lt;/div&gt;" style="ellipse;whiteSpace=wrap;html=1;" vertex="1" parent="1">
          <mxGeometry x="814" y="4170" width="90" height="60" as="geometry" />
        </mxCell>
        <mxCell id="HxoV1ZfJNtPTrQKnj8gP-197" style="edgeStyle=none;rounded=0;orthogonalLoop=1;jettySize=auto;html=1;exitX=1;exitY=0.5;exitDx=0;exitDy=0;entryX=0;entryY=0.5;entryDx=0;entryDy=0;" edge="1" parent="1" source="HxoV1ZfJNtPTrQKnj8gP-179" target="HxoV1ZfJNtPTrQKnj8gP-184">
          <mxGeometry relative="1" as="geometry" />
        </mxCell>
        <mxCell id="HxoV1ZfJNtPTrQKnj8gP-179" value="Website tuyển dụng" style="ellipse;whiteSpace=wrap;html=1;" vertex="1" parent="1">
          <mxGeometry x="209" y="4050" width="90" height="60" as="geometry" />
        </mxCell>
        <mxCell id="HxoV1ZfJNtPTrQKnj8gP-180" value="Thông báo" style="ellipse;whiteSpace=wrap;html=1;" vertex="1" parent="1">
          <mxGeometry x="704" y="4243" width="90" height="60" as="geometry" />
        </mxCell>
        <mxCell id="HxoV1ZfJNtPTrQKnj8gP-182" value="Phê duyệt" style="ellipse;whiteSpace=wrap;html=1;" vertex="1" parent="1">
          <mxGeometry x="514" y="4130" width="90" height="60" as="geometry" />
        </mxCell>
        <mxCell id="HxoV1ZfJNtPTrQKnj8gP-183" style="edgeStyle=none;rounded=0;orthogonalLoop=1;jettySize=auto;html=1;exitX=1;exitY=0.5;exitDx=0;exitDy=0;entryX=0;entryY=0.5;entryDx=0;entryDy=0;" edge="1" parent="1" source="HxoV1ZfJNtPTrQKnj8gP-184" target="HxoV1ZfJNtPTrQKnj8gP-189">
          <mxGeometry relative="1" as="geometry" />
        </mxCell>
        <mxCell id="HxoV1ZfJNtPTrQKnj8gP-184" value="Kiểm tra thông tin người tham gia tuyển dụng" style="ellipse;whiteSpace=wrap;html=1;" vertex="1" parent="1">
          <mxGeometry x="364" y="4030" width="110" height="80" as="geometry" />
        </mxCell>
        <mxCell id="HxoV1ZfJNtPTrQKnj8gP-212" style="edgeStyle=none;rounded=0;orthogonalLoop=1;jettySize=auto;html=1;exitX=0.5;exitY=0;exitDx=0;exitDy=0;exitPerimeter=0;entryX=0.5;entryY=1;entryDx=0;entryDy=0;" edge="1" parent="1" source="HxoV1ZfJNtPTrQKnj8gP-186" target="HxoV1ZfJNtPTrQKnj8gP-182">
          <mxGeometry relative="1" as="geometry" />
        </mxCell>
        <mxCell id="HxoV1ZfJNtPTrQKnj8gP-186" value="HR" style="shape=umlActor;verticalLabelPosition=bottom;verticalAlign=top;html=1;outlineConnect=0;" vertex="1" parent="1">
          <mxGeometry x="569" y="4260" width="30" height="60" as="geometry" />
        </mxCell>
        <mxCell id="HxoV1ZfJNtPTrQKnj8gP-187" style="edgeStyle=none;rounded=0;orthogonalLoop=1;jettySize=auto;html=1;exitX=0;exitY=0.5;exitDx=0;exitDy=0;entryX=1;entryY=0.3333333333333333;entryDx=0;entryDy=0;entryPerimeter=0;" edge="1" parent="1" source="HxoV1ZfJNtPTrQKnj8gP-180" target="HxoV1ZfJNtPTrQKnj8gP-186">
          <mxGeometry relative="1" as="geometry" />
        </mxCell>
        <mxCell id="HxoV1ZfJNtPTrQKnj8gP-188" value="Thông báo ngày phỏng vấn" style="ellipse;whiteSpace=wrap;html=1;" vertex="1" parent="1">
          <mxGeometry x="874" y="3970" width="100" height="60" as="geometry" />
        </mxCell>
        <mxCell id="HxoV1ZfJNtPTrQKnj8gP-189" value="Xác nhận yêu cầu được tuyển dụng" style="ellipse;whiteSpace=wrap;html=1;" vertex="1" parent="1">
          <mxGeometry x="549" y="3990" width="120" height="80" as="geometry" />
        </mxCell>
        <mxCell id="HxoV1ZfJNtPTrQKnj8gP-190" style="edgeStyle=none;rounded=0;orthogonalLoop=1;jettySize=auto;html=1;exitX=1;exitY=1;exitDx=0;exitDy=0;exitPerimeter=0;" edge="1" parent="1" source="HxoV1ZfJNtPTrQKnj8gP-191" target="HxoV1ZfJNtPTrQKnj8gP-177">
          <mxGeometry relative="1" as="geometry" />
        </mxCell>
        <mxCell id="HxoV1ZfJNtPTrQKnj8gP-214" style="edgeStyle=none;rounded=0;orthogonalLoop=1;jettySize=auto;html=1;exitX=1;exitY=0.3333333333333333;exitDx=0;exitDy=0;exitPerimeter=0;entryX=0;entryY=0.5;entryDx=0;entryDy=0;" edge="1" parent="1" source="HxoV1ZfJNtPTrQKnj8gP-191" target="HxoV1ZfJNtPTrQKnj8gP-188">
          <mxGeometry relative="1" as="geometry" />
        </mxCell>
        <mxCell id="HxoV1ZfJNtPTrQKnj8gP-191" value="system" style="shape=umlActor;verticalLabelPosition=bottom;verticalAlign=top;html=1;outlineConnect=0;" vertex="1" parent="1">
          <mxGeometry x="710" y="4040" width="30" height="60" as="geometry" />
        </mxCell>
        <mxCell id="HxoV1ZfJNtPTrQKnj8gP-192" style="edgeStyle=none;rounded=0;orthogonalLoop=1;jettySize=auto;html=1;exitX=1;exitY=0.5;exitDx=0;exitDy=0;entryX=0;entryY=0.3333333333333333;entryDx=0;entryDy=0;entryPerimeter=0;" edge="1" parent="1" source="HxoV1ZfJNtPTrQKnj8gP-189" target="HxoV1ZfJNtPTrQKnj8gP-191">
          <mxGeometry relative="1" as="geometry" />
        </mxCell>
        <mxCell id="HxoV1ZfJNtPTrQKnj8gP-196" value="visitor" style="shape=umlActor;verticalLabelPosition=bottom;verticalAlign=top;html=1;outlineConnect=0;" vertex="1" parent="1">
          <mxGeometry x="994" y="4040" width="30" height="60" as="geometry" />
        </mxCell>
        <mxCell id="HxoV1ZfJNtPTrQKnj8gP-207" style="edgeStyle=none;rounded=0;orthogonalLoop=1;jettySize=auto;html=1;exitX=0;exitY=0.3333333333333333;exitDx=0;exitDy=0;exitPerimeter=0;entryX=1;entryY=0;entryDx=0;entryDy=0;" edge="1" parent="1" source="HxoV1ZfJNtPTrQKnj8gP-202" target="HxoV1ZfJNtPTrQKnj8gP-205">
          <mxGeometry relative="1" as="geometry" />
        </mxCell>
        <mxCell id="HxoV1ZfJNtPTrQKnj8gP-202" value="system" style="shape=umlActor;verticalLabelPosition=bottom;verticalAlign=top;html=1;outlineConnect=0;" vertex="1" parent="1">
          <mxGeometry x="710" y="1140" width="30" height="60" as="geometry" />
        </mxCell>
        <mxCell id="HxoV1ZfJNtPTrQKnj8gP-203" style="edgeStyle=none;rounded=0;orthogonalLoop=1;jettySize=auto;html=1;exitX=0;exitY=1;exitDx=0;exitDy=0;entryX=1;entryY=0.3333333333333333;entryDx=0;entryDy=0;entryPerimeter=0;" edge="1" parent="1" source="HxoV1ZfJNtPTrQKnj8gP-58" target="HxoV1ZfJNtPTrQKnj8gP-202">
          <mxGeometry relative="1" as="geometry" />
        </mxCell>
        <mxCell id="HxoV1ZfJNtPTrQKnj8gP-204" value="Thông báo" style="ellipse;whiteSpace=wrap;html=1;" vertex="1" parent="1">
          <mxGeometry x="450" y="1200" width="90" height="60" as="geometry" />
        </mxCell>
        <mxCell id="HxoV1ZfJNtPTrQKnj8gP-208" style="edgeStyle=none;rounded=0;orthogonalLoop=1;jettySize=auto;html=1;exitX=0;exitY=0.5;exitDx=0;exitDy=0;entryX=1;entryY=0.5;entryDx=0;entryDy=0;" edge="1" parent="1" source="HxoV1ZfJNtPTrQKnj8gP-205" target="HxoV1ZfJNtPTrQKnj8gP-204">
          <mxGeometry relative="1" as="geometry" />
        </mxCell>
        <mxCell id="HxoV1ZfJNtPTrQKnj8gP-205" value="Xác nhận" style="ellipse;whiteSpace=wrap;html=1;" vertex="1" parent="1">
          <mxGeometry x="580" y="1190" width="90" height="60" as="geometry" />
        </mxCell>
        <mxCell id="HxoV1ZfJNtPTrQKnj8gP-209" style="edgeStyle=none;rounded=0;orthogonalLoop=1;jettySize=auto;html=1;exitX=0;exitY=0.5;exitDx=0;exitDy=0;entryX=1;entryY=0.3333333333333333;entryDx=0;entryDy=0;entryPerimeter=0;" edge="1" parent="1" source="HxoV1ZfJNtPTrQKnj8gP-204" target="HxoV1ZfJNtPTrQKnj8gP-65">
          <mxGeometry relative="1" as="geometry" />
        </mxCell>
        <mxCell id="HxoV1ZfJNtPTrQKnj8gP-211" style="edgeStyle=none;rounded=0;orthogonalLoop=1;jettySize=auto;html=1;exitX=0;exitY=0;exitDx=0;exitDy=0;entryX=1;entryY=1;entryDx=0;entryDy=0;entryPerimeter=0;" edge="1" parent="1" source="HxoV1ZfJNtPTrQKnj8gP-69" target="HxoV1ZfJNtPTrQKnj8gP-53">
          <mxGeometry relative="1" as="geometry" />
        </mxCell>
        <mxCell id="HxoV1ZfJNtPTrQKnj8gP-213" style="edgeStyle=none;rounded=0;orthogonalLoop=1;jettySize=auto;html=1;exitX=1;exitY=0;exitDx=0;exitDy=0;entryX=0;entryY=1;entryDx=0;entryDy=0;entryPerimeter=0;" edge="1" parent="1" source="HxoV1ZfJNtPTrQKnj8gP-182" target="HxoV1ZfJNtPTrQKnj8gP-191">
          <mxGeometry relative="1" as="geometry" />
        </mxCell>
        <mxCell id="HxoV1ZfJNtPTrQKnj8gP-215" style="edgeStyle=none;rounded=0;orthogonalLoop=1;jettySize=auto;html=1;exitX=1;exitY=1;exitDx=0;exitDy=0;entryX=0;entryY=0.3333333333333333;entryDx=0;entryDy=0;entryPerimeter=0;" edge="1" parent="1" source="HxoV1ZfJNtPTrQKnj8gP-188" target="HxoV1ZfJNtPTrQKnj8gP-196">
          <mxGeometry relative="1" as="geometry" />
        </mxCell>
        <mxCell id="HxoV1ZfJNtPTrQKnj8gP-218" value="&lt;font style=&quot;font-size: 30px;&quot;&gt;Visitor&lt;/font&gt;" style="text;html=1;align=center;verticalAlign=middle;whiteSpace=wrap;rounded=0;" vertex="1" parent="1">
          <mxGeometry x="160" y="-40" width="600" height="60" as="geometry" />
        </mxCell>
        <mxCell id="HxoV1ZfJNtPTrQKnj8gP-219" value="&lt;font style=&quot;font-size: 30px;&quot;&gt;Employee&lt;/font&gt;" style="text;html=1;align=center;verticalAlign=middle;whiteSpace=wrap;rounded=0;" vertex="1" parent="1">
          <mxGeometry x="240" y="1360" width="640" height="60" as="geometry" />
        </mxCell>
        <mxCell id="HxoV1ZfJNtPTrQKnj8gP-251" style="edgeStyle=none;rounded=0;orthogonalLoop=1;jettySize=auto;html=1;exitX=1;exitY=0.3333333333333333;exitDx=0;exitDy=0;exitPerimeter=0;entryX=0;entryY=0.5;entryDx=0;entryDy=0;" edge="1" parent="1" source="HxoV1ZfJNtPTrQKnj8gP-247" target="HxoV1ZfJNtPTrQKnj8gP-140">
          <mxGeometry relative="1" as="geometry" />
        </mxCell>
        <mxCell id="HxoV1ZfJNtPTrQKnj8gP-247" value="employee" style="shape=umlActor;verticalLabelPosition=bottom;verticalAlign=top;html=1;outlineConnect=0;" vertex="1" parent="1">
          <mxGeometry x="79" y="2100" width="30" height="60" as="geometry" />
        </mxCell>
        <mxCell id="HxoV1ZfJNtPTrQKnj8gP-249" value="Lưu trữ vào&lt;div&gt;dữ liệu hệ thống&lt;/div&gt;" style="ellipse;whiteSpace=wrap;html=1;" vertex="1" parent="1">
          <mxGeometry x="827" y="2085" width="110" height="70" as="geometry" />
        </mxCell>
        <mxCell id="HxoV1ZfJNtPTrQKnj8gP-254" style="edgeStyle=none;rounded=0;orthogonalLoop=1;jettySize=auto;html=1;exitX=1;exitY=0.5;exitDx=0;exitDy=0;entryX=0;entryY=1;entryDx=0;entryDy=0;entryPerimeter=0;" edge="1" parent="1" source="HxoV1ZfJNtPTrQKnj8gP-130" target="HxoV1ZfJNtPTrQKnj8gP-134">
          <mxGeometry relative="1" as="geometry" />
        </mxCell>
      </root>
    </mxGraphModel>
  </diagram>
</mxfile>
